<svg width="1920" height="1080" viewBox="0 0 1920 1080" fill="none" xmlns="http://www.w3.org/2000/svg">
<g clip-path="url(#clip0_13_1592)">
<path d="M1604.95 -152.407L1729.78 62.0055L1516.83 428L1392 213.623L1604.95 -152.407ZM1682.96 213.623H2109L1984.17 428H1558.16L1682.96 213.623ZM1838.66 178.066L1625.67 -188H1875.33L2088.28 178.066H1838.66Z" fill="#2D68C4"/>
<path d="M1422.36 834.455L1494.09 957.672L1371.73 1168L1300 1044.8L1422.36 834.455ZM1467.19 1044.8H1712L1640.27 1168H1395.48L1467.19 1044.8ZM1556.66 1024.37L1434.27 814H1577.73L1700.09 1024.37H1556.66Z" fill="#2D68C4"/>
<path d="M587.803 99.8497L639.859 189.304L551.056 342L499 252.56L587.803 99.8497ZM620.334 252.56H798L745.944 342H568.293L620.334 252.56ZM685.262 237.725L596.444 85H700.556L789.359 237.725H685.262Z" fill="#2D68C4"/>
<path d="M823.157 513.894L889.489 627.714L776.332 822L710 708.199L823.157 513.894ZM864.61 708.199H1091L1024.67 822H798.297L864.61 708.199ZM947.344 689.324L834.168 495H966.832L1079.99 689.324H947.344Z" fill="#2D68C4"/>
<path d="M225.803 748.85L277.859 838.304L189.056 991L137 901.56L225.803 748.85ZM258.334 901.56H436L383.944 991H206.293L258.334 901.56ZM323.262 886.725L234.444 734H338.556L427.359 886.725H323.262Z" fill="#2D68C4"/>
<path d="M-18.748 145.597L71.0876 299.793L-82.1644 563L-172 408.83L-18.748 145.597ZM37.3928 408.83H344L254.164 563H-52.417L37.3928 408.83ZM149.442 383.258L-3.83562 120H175.836L329.088 383.258H149.442Z" fill="#2D68C4"/>
</g>
<defs>
<clipPath id="clip0_13_1592">
<rect width="1920" height="1080" fill="white"/>
</clipPath>
</defs>
</svg>
